# xmcd CD database file
#
# Track frame offsets:
#	150
#	13218
#	24744
#	38167
#	54341
#	68547
#	80411
#	94406
#	107538
#	119604
#	133301
#	146238
#	158242
#	172949
#	185575
#	198980
#	211978
#	225014
#	238776
#	251826
#	265517
#	278893
#	292291
#	306643
#
# Disc length: 4258 seconds
#
# Revision: 0
# Processed by: cddbd v1.5PL3 Copyright (c) Steve Scherf et al.
# Submitted via: CDex 1.51
#
DISCID=6610a018
DTITLE=Various Artist - La grande anthologie_1925-1962(CD1)
DYEAR=1998
DGENRE=Blues
TTITLE0=Texas Alexander - Katy Crossing Blues
TTITLE1=Blind Boy Fuller - Screaming and crying blues
TTITLE2=Scrapper Blackwell - Down South Blues
TTITLE3=Leroy Carr - Blues before sunrise
TTITLE4=Sleepy John Estes - Poor man's friend
TTITLE5=Sonny Terry - Harmonica and Washboard Breakdown
TTITLE6=Connon's Jug Stompers - Viola Lee BLues
TTITLE7=Bukka White - Strange place blues
TTITLE8=Lonnie Johnson - It ain't what you usta be
TTITLE9=Bumble Bee Slim - Cold blooded murder N°2
TTITLE10=Cripple Clarence Lofton - Brown SKin girls
TTITLE11=Red Nelson - Crying Mother blues
TTITLE12=Roosevelt Sykes - 44'Blues
TTITLE13=Walter Davis - New "Comme Bach Baby"
TTITLE14=Henry Brown - Henry Brown Blues
TTITLE15=Bill Gaither - Tired of your line of Jive
TTITLE16=Bessie Jackson - Down in Boogie Alley
TTITLE17=Peetie Wheatstraw - Kidnapper's blues
TTITLE18=Kokomo Arnold - Broke Man Blues
TTITLE19=Robert Johnson - Sweet Home Chicago
TTITLE20=Memphis Minnie - Mean Mistreater Blues
TTITLE21=Ida Cox - Hard Times Blues
TTITLE22=Bessie Smith - The St. Louis Blues
TTITLE23=Louis Armstrong - 2.19 Blues
EXTD=YEAR: 1998
EXTT0=
EXTT1=
EXTT2=
EXTT3=
EXTT4=
EXTT5=
EXTT6=
EXTT7=
EXTT8=
EXTT9=
EXTT10=
EXTT11=
EXTT12=
EXTT13=
EXTT14=
EXTT15=
EXTT16=
EXTT17=
EXTT18=
EXTT19=
EXTT20=
EXTT21=
EXTT22=
EXTT23=
PLAYORDER=
